<?xml version="1.0" encoding="utf-8"?>
<!-- Generator: Adobe Illustrator 17.0.2, SVG Export Plug-In . SVG Version: 6.00 Build 0)  -->
<!DOCTYPE svg PUBLIC "-//W3C//DTD SVG 1.1//EN" "http://www.w3.org/Graphics/SVG/1.1/DTD/svg11.dtd">
<svg version="1.1" id="Layer_1" xmlns="http://www.w3.org/2000/svg" xmlns:xlink="http://www.w3.org/1999/xlink" x="0px" y="0px"
	 width="200px" height="50px" viewBox="0 0 200 50" enable-background="new 0 0 200 50" xml:space="preserve">
<g>
	<path fill="#FFFFFF" d="M130.632,26.129l-3.215,2.936l-8.477,2.906l-45.653-1.234l-6.079,1.179l-5.117,2.885l0.372-1.333
		l0.941-1.655l4.847-5.355l9.491-3.103l40.856,4.688l8.105-1.573l5.686-3.205L130.632,26.129z M136.596,16.773l-4.848,5.356
		l-9.49,3.102l-40.857-4.688l-8.105,1.573l-5.686,3.205l1.757-2.864l3.215-2.936l8.477-2.906l45.653,1.234l6.079-1.179l5.117-2.885
		l-0.372,1.334L136.596,16.773z"/>
</g>
</svg>
