<?xml version="1.0" encoding="utf-8"?>
<!-- Generator: Adobe Illustrator 17.0.2, SVG Export Plug-In . SVG Version: 6.00 Build 0)  -->
<!DOCTYPE svg PUBLIC "-//W3C//DTD SVG 1.1//EN" "http://www.w3.org/Graphics/SVG/1.1/DTD/svg11.dtd">
<svg version="1.1" id="Layer_1" xmlns="http://www.w3.org/2000/svg" xmlns:xlink="http://www.w3.org/1999/xlink" x="0px" y="0px"
	 width="400px" height="100px" viewBox="0 0 400 100" enable-background="new 0 0 400 100" xml:space="preserve">
<g>
	<path fill="#FFFFFF" d="M20.328,30.465c0-3.337,0-4.032-5.144-5.075v-1.738h5.422c6.257,0,7.786-0.278,7.786-0.278l0.348,0.278
		c0,0-2.294,2.642-2.294,8.412V62.93c0,11.609-4.867,18.423-12.653,18.423l-0.834-1.669c3.754-0.556,7.369-6.048,7.369-13.139
		V30.465z"/>
	<path fill="#FFFFFF" d="M50.012,52.572l2.364-0.348c0.069-1.46,0.069-5.492-0.278-7.438c-0.486-2.572-1.807-4.449-4.379-4.449
		c-4.728,0-7.369,6.674-7.369,6.674h-2.225l-1.182-5.214c0,0,5.075-3.893,12.861-3.893c6.535,0,8.273,2.642,8.273,9.941v15.989
		c0,2.225,0.278,3.268,1.877,3.268c1.877,0,3.823-1.391,3.823-1.391l0.904,1.46c0,0-3.267,3.685-7.369,3.685
		c-2.642,0-4.728-1.529-4.728-4.936v-1.669c0,0-3.685,6.604-10.845,6.604c-4.588,0-7.23-3.268-7.23-7.021
		C34.51,57.16,42.782,53.684,50.012,52.572z M52.376,62.721v-8.203l-2.155,0.348c-3.962,0.626-9.593,2.711-9.593,7.717
		c0,2.78,1.807,4.311,3.893,4.311C47.232,66.893,50.569,64.251,52.376,62.721z"/>
	<path fill="#FFFFFF" d="M67.114,68.214c3.128-0.348,4.31-2.016,4.31-4.519V46.802c0-2.989-0.069-4.728-2.085-4.728h-2.989v-1.877
		c6.812-1.39,11.123-3.267,11.123-3.267l0.208,0.208c0,0-0.625,2.225-0.834,8.412c2.503-3.615,6.952-7.647,12.583-7.647
		c4.449,0,7.3,2.502,7.3,7.995c2.642-4.171,7.23-7.995,12.722-7.995c4.519,0,7.438,2.433,7.438,9.385v16.407
		c0,2.086-0.348,3.754-0.348,3.754l5.909,0.626l-0.278,1.737l-14.947,0.418v-2.017c3.128-0.348,3.963-2.016,3.963-4.519V48.818
		c0-5.284-1.46-6.674-4.032-6.674c-3.128,0-10.219,2.85-10.219,6.882v14.668c0,2.086-0.348,3.754-0.348,3.754l5.562,0.626
		l-0.278,1.737L87.275,70.23v-2.017c3.128-0.348,3.962-2.016,3.962-4.519V48.818c0-5.284-1.46-6.674-4.102-6.674
		c-3.128,0-7.021,1.877-10.011,4.866v16.685c0,2.086-0.348,3.754-0.348,3.754l5.562,0.626l-0.278,1.737L67.114,70.23V68.214z"/>
	<path fill="#FFFFFF" d="M140.527,37.904c5.979,0,11.888,3.893,12.097,11.541c0,0-1.808,0.694-3.198,0.903l-17.31,2.503
		l-0.695,0.834c0.278,6.326,3.476,12.514,11.262,12.514c5.701,0,9.038-3.337,9.038-3.337l0.765,1.46c0,0-3.615,6.534-11.888,6.534
		c-9.872,0-14.738-7.717-14.738-15.851C125.858,45.551,132.115,37.904,140.527,37.904z M131.559,50.347l14.599-1.877
		c0,0-0.556-7.925-6.674-7.925C134.826,40.545,132.184,45.134,131.559,50.347z"/>
	<path fill="#FFFFFF" d="M158.81,60.844h2.085c0.417,5.909,4.519,7.647,7.855,7.647c3.407,0,5.77-1.808,5.77-4.728
		c0-7.438-15.92-6.952-15.92-17.032c0-5.144,3.963-8.829,11.332-8.829c4.171,0,8.689,1.251,8.689,1.251l-1.39,7.16h-2.155
		c0-5.701-4.797-6.048-6.256-6.048c-3.754,0-5.214,2.294-5.214,4.449c0,7.369,15.851,6.048,15.851,17.032
		c0,5.77-4.519,9.106-11.123,9.106c-3.198,0-10.428-0.765-10.428-4.728C157.906,64.738,158.81,60.844,158.81,60.844z"/>
	<path fill="#FFFFFF" d="M200.729,68.006c3.128-0.348,4.866-1.738,5.005-4.311l1.321-33.23c0.139-3.337-0.278-4.032-5.631-5.075
		v-1.738h5.562c5.562,0,7.646-0.278,7.646-0.278l0.278,0.278c0,0,0.903,3.615,2.016,6.396L227.563,57.3
		c0.486,1.182,0.974,2.711,1.321,3.962l13.486-32.812c0.557-1.46,1.529-4.797,1.529-4.797h1.808c6.118,0,7.508-0.278,7.508-0.278
		l0.348,0.278c0,0-2.433,2.85-2.225,8.759l1.321,31.492c0.069,2.155-0.209,3.546-0.209,3.546l6.118,0.417l-0.278,1.946
		l-16.615,0.418v-2.225c3.059-0.348,5.075-1.738,5.006-4.103l-1.529-34.272l-16.685,40.391l-2.155-0.834L210.253,29.7
		c0,0-0.139,1.391-0.208,2.711l-1.252,31.284c-0.069,1.946-0.486,3.754-0.486,3.754l6.396,0.417l-0.277,1.946l-13.695,0.418V68.006z
		"/>
	<path fill="#FFFFFF" d="M277.687,52.572l2.363-0.348c0.07-1.46,0.07-5.492-0.277-7.438c-0.487-2.572-1.808-4.449-4.38-4.449
		c-4.728,0-7.369,6.674-7.369,6.674H265.8l-1.182-5.214c0,0,5.075-3.893,12.86-3.893c6.535,0,8.273,2.642,8.273,9.941v15.989
		c0,2.225,0.278,3.268,1.877,3.268c1.877,0,3.823-1.391,3.823-1.391l0.904,1.46c0,0-3.268,3.685-7.369,3.685
		c-2.642,0-4.728-1.529-4.728-4.936v-1.669c0,0-3.685,6.604-10.845,6.604c-4.589,0-7.23-3.268-7.23-7.021
		C262.184,57.16,270.458,53.684,277.687,52.572z M280.051,62.721v-8.203l-2.154,0.348c-3.963,0.626-9.594,2.711-9.594,7.717
		c0,2.78,1.808,4.311,3.893,4.311C274.907,66.893,278.244,64.251,280.051,62.721z"/>
	<path fill="#FFFFFF" d="M294.858,68.214c3.129-0.348,4.311-2.016,4.311-4.519V46.802c0-2.989-0.069-4.728-2.086-4.728h-3.128
		v-1.877c6.812-1.39,11.262-3.267,11.262-3.267l0.209,0.208c0,0-0.626,2.294-0.835,8.829c2.086-3.893,5.771-8.064,9.386-8.064
		c1.668,0,3.754,0.834,3.754,3.198c0,2.085-1.46,3.406-3.268,3.406c-1.599,0-1.808-1.182-3.406-1.182
		c-2.364,0-4.658,2.294-6.188,4.032v16.337c0,2.086-0.348,3.754-0.348,3.754l6.604,0.626l-0.278,1.737l-15.989,0.418V68.214z"/>
	<path fill="#FFFFFF" d="M335.527,37.904c0.626,0,1.321,0.069,2.086,0.139c-0.139-0.557-0.626-2.225-0.626-4.241
		c0-8.829,7.926-12.166,14.391-12.653c3.406-0.278,9.732-2.502,9.732-2.502l0.209,0.208c0,0-0.695,2.572-0.695,7.925v13.487
		c0,3.198-0.278,4.588-0.278,5.144c2.503-3.615,7.369-7.508,13.209-7.508c4.797,0,7.925,2.642,7.925,9.385v16.407
		c0,2.086-0.348,3.754-0.348,3.754l5.909,0.626l-0.278,1.737l-14.946,0.418v-2.017c2.851-0.348,3.963-2.016,3.963-4.519V48.818
		c0-5.284-2.017-6.674-4.797-6.674c-3.198,0-7.438,1.946-10.358,4.727v16.824c0,2.086-0.348,3.754-0.348,3.754l5.562,0.626
		l-0.278,1.737l-14.946,0.418v-2.017c3.128-0.348,4.311-2.016,4.311-4.519V28.379c0-3.337-0.557-4.379-3.685-4.379
		c-7.23,0-11.332,4.102-11.332,9.872c0,2.016,0.695,3.893,1.182,4.866c2.92,0.834,5.423,2.294,5.423,4.449
		c0,1.321-0.974,2.503-2.642,2.503c-3.546,0-3.963-5.422-8.829-5.422c-5.562,0-8.689,5.979-8.689,12.722
		c0,6.674,3.267,13.209,11.47,13.209c5.214,0,8.064-2.851,8.064-2.851l0.765,1.46c0,0-3.197,6.048-11.262,6.048
		c-9.732,0-14.738-7.855-14.738-15.851C320.65,46.594,325.933,37.904,335.527,37.904z"/>
</g>
</svg>
