<?xml version="1.0" encoding="utf-8"?>
<!-- Generator: Adobe Illustrator 17.0.2, SVG Export Plug-In . SVG Version: 6.00 Build 0)  -->
<!DOCTYPE svg PUBLIC "-//W3C//DTD SVG 1.1//EN" "http://www.w3.org/Graphics/SVG/1.1/DTD/svg11.dtd">
<svg version="1.1" id="Layer_1" xmlns="http://www.w3.org/2000/svg" xmlns:xlink="http://www.w3.org/1999/xlink" x="0px" y="0px"
	 width="400px" height="100px" viewBox="0 0 400 100" enable-background="new 0 0 400 100" xml:space="preserve">
<g>
	<path fill="#FFFFFF" d="M20.682,29.514c0-3.456,0-4.176-5.473-5.256v-1.656h5.761c5.544,0,6.912-0.288,6.912-0.288l0.36,0.288
		c0,0-2.376,2.736-2.376,8.713v33.123c0,11.377-4.681,17.93-11.953,17.93l-0.864-1.584c3.889-0.576,7.633-6.121,7.633-13.249V29.514
		z"/>
	<path fill="#FFFFFF" d="M50.922,52.917l2.448-0.36v-0.072c0,0,0.145-5.329-0.288-7.705c-0.576-2.88-2.016-5.041-4.968-5.041
		c-5.185,0-7.849,6.625-7.849,6.625H38.25l-1.08-5.041c0,0,5.04-3.816,12.673-3.816c6.48,0,8.281,2.665,8.281,10.297v16.634
		c0,2.376,0.216,3.385,2.016,3.385c2.089,0,4.177-1.513,4.177-1.513l0.864,1.368c0,0-3.312,3.816-7.129,3.816
		c-2.448,0-4.536-1.512-4.536-5.185v-1.944c0,0-3.816,7.129-11.594,7.129c-4.968,0-7.2-3.601-7.2-6.984
		C34.721,57.741,43.362,54.068,50.922,52.917z M53.371,62.926v-8.354l-2.376,0.36c-4.248,0.648-10.945,2.881-10.945,8.425
		c0,3.097,2.16,4.608,4.177,4.608C47.394,67.966,51.283,64.653,53.371,62.926z"/>
	<path fill="#FFFFFF" d="M67.914,68.902c3.312-0.36,4.608-2.089,4.608-4.681V46.579c0-3.168-0.072-4.968-2.16-4.968h-3.24v-1.8
		c6.624-1.512,10.513-3.312,10.513-3.312l0.216,0.216c0,0-0.648,2.521-0.792,8.929c2.592-3.888,7.417-8.137,13.249-8.137
		c4.752,0,7.561,2.809,7.272,8.785c2.736-4.608,7.777-8.785,13.537-8.785c4.537,0,7.345,2.448,7.345,9.721v16.994
		c0,2.16-0.36,3.889-0.36,3.889l6.265,0.647l-0.288,1.656l-14.833,0.432v-1.943c3.601-0.36,4.465-2.089,4.465-4.681V48.38
		c0-5.616-1.513-7.201-4.249-7.201c-3.384,0-11.665,3.528-11.665,8.137v14.906c0,2.16-0.359,3.889-0.359,3.889l6.12,0.72
		l-0.288,1.584l-14.689,0.432v-1.943c3.601-0.36,4.465-2.089,4.465-4.681V48.38c0-5.616-1.656-7.201-4.393-7.201
		c-3.528,0-7.992,2.376-11.377,5.905v17.138c0,2.16-0.36,3.889-0.36,3.889l6.121,0.72l-0.288,1.584l-14.833,0.432V68.902z"/>
	<path fill="#FFFFFF" d="M128.104,68.902c3.385-0.36,4.608-2.089,4.608-4.681V46.579c0-3.168-0.071-4.968-2.16-4.968h-3.384v-1.8
		c11.232-2.88,11.089-3.312,11.089-3.312l0.072,0.216c0,0-0.864,2.376-0.864,8.209v19.298c0,2.16-0.36,3.889-0.36,3.889l6.265,0.647
		l-0.288,1.656l-14.978,0.432V68.902z M131.056,26.274c0-1.728,1.656-3.456,3.385-3.456s3.385,1.728,3.385,3.456
		c0,1.8-1.656,3.528-3.385,3.528S131.056,28.074,131.056,26.274z"/>
	<path fill="#FFFFFF" d="M162.018,37.507c6.049,0,12.17,4.104,12.386,11.665c0,0-1.368,0.504-2.809,0.72l-18.865,2.737l-0.721,0.863
		c0.072,6.985,3.528,13.754,11.81,13.754c6.192,0,9.648-3.673,9.648-3.673l0.792,1.296c0,0-3.744,6.625-12.097,6.625
		c-10.153,0-14.905-7.992-14.905-16.346C147.257,45.355,153.522,37.507,162.018,37.507z M152.226,50.252l16.273-2.088
		c0,0-0.721-8.209-7.417-8.209C155.898,39.955,153.018,44.78,152.226,50.252z"/>
	<path fill="#FFFFFF" d="M197.081,68.685c3.312-0.359,5.04-1.8,5.184-4.464l1.297-34.708c0.144-3.384-0.217-4.176-5.905-5.256
		v-1.656h5.905c5.256,0,6.624-0.288,6.624-0.288l0.288,0.288c0,0,1.08,4.177,2.088,6.625l11.882,30.099
		c0.432,1.224,1.008,2.809,1.368,4.104l14.833-35.932c0.504-1.512,1.584-4.896,1.584-4.896h1.296c6.48,0,7.201-0.288,7.201-0.288
		l0.359,0.288c0,0-2.592,2.953-2.376,9.073l1.368,32.763c0.072,2.232-0.216,3.673-0.216,3.673l6.48,0.432l-0.288,1.872
		l-16.273,0.432v-2.16c3.24-0.359,5.4-1.8,5.328-4.248l-1.656-36.147l-17.713,42.34l-2.017-0.864l-17.138-41.403
		c0,0-0.144,1.44-0.216,2.808L205,64.221c-0.071,2.016-0.504,3.889-0.504,3.889l6.625,0.432l-0.288,1.872l-13.753,0.432V68.685z"/>
	<path fill="#FFFFFF" d="M276.569,52.917l2.448-0.36v-0.072c0,0,0.144-5.329-0.288-7.705c-0.576-2.88-2.017-5.041-4.969-5.041
		c-5.185,0-7.849,6.625-7.849,6.625h-2.016l-1.08-5.041c0,0,5.04-3.816,12.673-3.816c6.48,0,8.28,2.665,8.28,10.297v16.634
		c0,2.376,0.217,3.385,2.017,3.385c2.088,0,4.177-1.513,4.177-1.513l0.863,1.368c0,0-3.312,3.816-7.128,3.816
		c-2.448,0-4.537-1.512-4.537-5.185v-1.944c0,0-3.815,7.129-11.593,7.129c-4.968,0-7.2-3.601-7.2-6.984
		C260.368,57.741,269.008,54.068,276.569,52.917z M279.017,62.926v-8.354l-2.376,0.36c-4.249,0.648-10.945,2.881-10.945,8.425
		c0,3.097,2.16,4.608,4.177,4.608C273.041,67.966,276.929,64.653,279.017,62.926z"/>
	<path fill="#FFFFFF" d="M293.631,68.902c3.385-0.36,4.608-2.089,4.608-4.681V46.508c0-3.096-0.072-4.896-2.16-4.896h-3.384v-1.872
		c6.552-1.44,10.656-3.24,10.656-3.24l0.216,0.216c0,0-0.647,2.665-0.792,9.217c2.881-5.4,6.48-8.425,9.505-8.425
		c1.297,0,3.744,0.36,3.744,2.953c0,2.088-1.512,3.168-2.952,3.168c-1.439,0-1.655-1.152-3.24-1.152c-2.52,0-4.68,2.376-6.84,4.824
		v16.922c0,2.16-0.36,3.889-0.36,3.889l6.984,0.647l-0.288,1.656l-15.697,0.432V68.902z"/>
	<path fill="#FFFFFF" d="M334.098,37.507c0.72,0,1.512,0.072,2.376,0.144c-0.145-0.504-0.72-2.304-0.72-4.464
		c0-8.208,6.696-12.529,14.688-13.033c2.593-0.144,9.289-2.52,9.289-2.52l0.216,0.216c0,0-0.72,2.665-0.72,8.209v14.473
		c0,3.24-0.288,4.464-0.288,4.968c2.592-3.96,7.993-7.993,14.041-7.993c4.969,0,8.137,2.736,8.137,9.721v16.994
		c0,2.16-0.359,3.889-0.359,3.889l6.192,0.647l-0.288,1.656l-14.762,0.432v-1.943c3.169-0.36,4.465-2.089,4.465-4.681V48.38
		c0-5.616-2.448-7.201-5.329-7.201c-3.6,0-8.496,2.448-11.809,5.688v17.354c0,2.16-0.36,3.889-0.36,3.889l6.192,0.647l-0.287,1.656
		l-14.906,0.432v-1.943c3.385-0.36,4.608-2.089,4.608-4.681V27.498c0-3.528-0.575-4.68-3.888-4.68
		c-7.489,0-11.881,4.248-11.881,10.441c0,2.16,0.72,4.176,1.224,5.112c3.024,0.936,5.473,2.376,5.473,4.464
		c0,1.224-0.864,2.304-2.448,2.304c-3.528,0-4.177-5.473-9.145-5.473c-6.121,0-9.505,6.409-9.505,13.682
		c0,6.769,3.312,13.897,12.169,13.897c5.544,0,8.28-3.097,8.28-3.097l0.792,1.296c0,0-3.096,6.049-11.089,6.049
		c-10.152,0-15.121-8.209-15.121-16.417C319.336,46.292,324.593,37.507,334.098,37.507z"/>
</g>
</svg>
