<?xml version="1.0" encoding="utf-8"?>
<!-- Generator: Adobe Illustrator 17.0.2, SVG Export Plug-In . SVG Version: 6.00 Build 0)  -->
<!DOCTYPE svg PUBLIC "-//W3C//DTD SVG 1.1//EN" "http://www.w3.org/Graphics/SVG/1.1/DTD/svg11.dtd">
<svg version="1.1" id="Layer_1" xmlns="http://www.w3.org/2000/svg" xmlns:xlink="http://www.w3.org/1999/xlink" x="0px" y="0px"
	 width="16px" height="16px" viewBox="0 0 16 16" enable-background="new 0 0 16 16" xml:space="preserve">
<path fill-rule="evenodd" clip-rule="evenodd" fill="#FFFFFF" d="M13.455,2.865l-0.1,0.125c-1.04,1.275-2.325,2.23-3.93,2.915
	l-0.43,0.18L9.2,6.52c0.19,0.405,0.375,0.825,0.56,1.26L9.895,8.1l0.33-0.055c0.63-0.105,1.3-0.16,1.99-0.16
	c0.925,0,1.915,0.095,2.945,0.285l0.33,0.06c0-0.08,0.01-0.155,0.01-0.23C15.5,6.01,14.72,4.205,13.455,2.865z M5.88,0.81l0.05,0.07
	C6.89,2.25,7.77,3.7,8.55,5.2l0.18,0.35l0.36-0.145c1.605-0.67,2.93-1.65,3.93-2.915l0.025-0.03C11.71,1.245,9.945,0.5,8,0.5
	C7.265,0.5,6.555,0.61,5.88,0.81z M0.63,6.625l0.31,0.03C3.745,6.65,5.88,6.41,7.67,5.895l0.53-0.15l-0.265-0.5
	C6.975,3.425,6,1.955,5.32,1C2.92,1.925,1.11,4.04,0.63,6.625z M2.755,13.355l0.14-0.21C4.53,10.65,6.48,9.085,8.86,8.36
	l0.475-0.145l-0.2-0.475c-0.17-0.385-0.34-0.77-0.51-1.135L8.46,6.255L8.11,6.34C6.165,6.935,3.905,7.165,0.79,7.165H0.55
	C0.52,7.44,0.5,7.715,0.5,8C0.5,10.1,1.365,11.995,2.755,13.355z M11.17,14.79c-0.26-1.84-0.755-3.74-1.47-5.645L9.555,8.77
	L9.18,8.875c-3.17,0.91-4.915,3.17-5.95,4.795l-0.05,0.075C4.485,14.84,6.165,15.5,8,15.5C9.135,15.5,10.21,15.24,11.17,14.79z
	 M15.455,8.815L15.21,8.77c-1.045-0.2-2.045-0.3-2.975-0.3c-0.54,0-1.07,0.035-1.575,0.1l-0.545,0.075L10.31,9.18
	c0.625,1.7,1.075,3.4,1.345,5.045l0.05,0.29C13.745,13.355,15.19,11.265,15.455,8.815z M8,16c-4.42,0-8-3.58-8-8s3.58-8,8-8
	s8,3.58,8,8S12.42,16,8,16z"/>
</svg>
