<?xml version="1.0" encoding="utf-8"?>
<!-- Generator: Adobe Illustrator 17.0.2, SVG Export Plug-In . SVG Version: 6.00 Build 0)  -->
<!DOCTYPE svg PUBLIC "-//W3C//DTD SVG 1.1//EN" "http://www.w3.org/Graphics/SVG/1.1/DTD/svg11.dtd">
<svg version="1.1" id="Layer_1" xmlns="http://www.w3.org/2000/svg" xmlns:xlink="http://www.w3.org/1999/xlink" x="0px" y="0px"
	 width="24px" height="24px" viewBox="0 0 24 24" enable-background="new 0 0 24 24" xml:space="preserve">
<path fill="#FFFFFF" d="M16.299,1.59c-2.981,0-5.413,2.54-5.413,5.671v0.175c-3.056-0.433-5.88-2.09-7.853-4.639
	c-0.15-0.208-0.391-0.325-0.65-0.325L2.317,2.481C2.042,2.498,1.792,2.656,1.659,2.906c-0.475,0.858-0.725,1.84-0.725,2.832
	c0,0.924,0.217,1.816,0.608,2.607c-0.075,0.017-0.15,0.05-0.225,0.092c-0.25,0.142-0.416,0.408-0.416,0.708v0.075
	c0,1.666,0.7,3.198,1.832,4.256l-0.017,0.008c-0.192,0.217-0.258,0.525-0.175,0.808c0.483,1.591,1.599,2.848,3.006,3.481
	c-1.116,0.575-2.349,0.866-3.623,0.866c-0.333,0-0.666-0.017-0.999-0.058l-0.1-0.008c-0.341,0-0.65,0.217-0.775,0.541
	c-0.133,0.366,0,0.766,0.316,0.983c2.24,1.516,4.83,2.315,7.487,2.315c5.23,0,8.495-2.598,10.318-4.78
	c2.257-2.698,3.556-6.279,3.556-9.81V7.586c0.833-0.691,1.549-1.516,2.14-2.448c0.2-0.308,0.167-0.716-0.075-0.999
	c-0.158-0.183-0.391-0.283-0.625-0.283c-0.05,0-0.1,0.008-0.158,0.017c0.133-0.275,0.25-0.558,0.333-0.849
	c0.1-0.333-0.008-0.691-0.283-0.908c-0.15-0.117-0.325-0.175-0.508-0.175c-0.15,0-0.3,0.042-0.433,0.133
	c-0.691,0.433-1.432,0.75-2.215,0.958C18.923,2.106,17.632,1.59,16.299,1.59z M16.299,2.423c1.316,0,2.507,0.591,3.348,1.524
	c1.041-0.217,2.024-0.616,2.906-1.174c-0.341,1.133-1.066,2.082-2.015,2.682c0.933-0.117,1.816-0.383,2.632-0.766
	c-0.608,0.974-1.391,1.824-2.282,2.507c0.008,0.208,0.008,0.416,0.008,0.625c0,6.388-4.605,13.758-13.042,13.758
	c-2.59,0-4.997-0.799-7.029-2.174c0.358,0.042,0.725,0.067,1.099,0.067c2.14,0,4.122-0.775,5.688-2.065
	c-2.007-0.042-3.698-1.441-4.281-3.365c0.283,0.058,0.566,0.092,0.866,0.092c0.416,0,0.816-0.058,1.208-0.175
	c-2.099-0.441-3.681-2.398-3.681-4.739V9.16c0.616,0.358,1.324,0.575,2.074,0.6c-1.224-0.866-2.04-2.34-2.04-4.022
	c0-0.883,0.233-1.716,0.625-2.432c2.265,2.931,5.638,4.855,9.452,5.055c-0.083-0.358-0.125-0.725-0.125-1.099
	C11.711,4.588,13.768,2.423,16.299,2.423z"/>
</svg>
