<?xml version="1.0" encoding="utf-8"?>
<!-- Generator: Adobe Illustrator 17.0.2, SVG Export Plug-In . SVG Version: 6.00 Build 0)  -->
<!DOCTYPE svg PUBLIC "-//W3C//DTD SVG 1.1//EN" "http://www.w3.org/Graphics/SVG/1.1/DTD/svg11.dtd">
<svg version="1.1" id="Layer_1" xmlns="http://www.w3.org/2000/svg" xmlns:xlink="http://www.w3.org/1999/xlink" x="0px" y="0px"
	 width="20px" height="20px" viewBox="0 0 20 20" enable-background="new 0 0 20 20" xml:space="preserve">
<path fill="#FFFFFF" d="M13.583,1.325c-2.485,0-4.511,2.117-4.511,4.726v0.146c-2.547-0.361-4.9-1.742-6.544-3.866
	C2.402,2.158,2.201,2.061,1.986,2.061L1.93,2.068C1.701,2.081,1.493,2.213,1.382,2.422c-0.396,0.715-0.604,1.534-0.604,2.36
	c0,0.77,0.18,1.513,0.507,2.172C1.223,6.967,1.16,6.995,1.098,7.03C0.889,7.148,0.751,7.37,0.751,7.62v0.062
	c0,1.388,0.583,2.665,1.527,3.546l-0.014,0.007c-0.16,0.18-0.215,0.437-0.146,0.673c0.403,1.326,1.332,2.373,2.505,2.901
	c-0.93,0.479-1.957,0.722-3.019,0.722c-0.278,0-0.555-0.014-0.833-0.049l-0.083-0.007c-0.285,0-0.541,0.18-0.645,0.451
	c-0.111,0.305,0,0.638,0.264,0.819c1.867,1.263,4.025,1.929,6.239,1.929c4.358,0,7.079-2.165,8.599-3.984
	c1.881-2.249,2.963-5.233,2.963-8.175V6.322c0.694-0.576,1.291-1.263,1.784-2.04c0.167-0.257,0.139-0.597-0.062-0.833
	c-0.132-0.153-0.326-0.236-0.521-0.236c-0.042,0-0.083,0.007-0.132,0.014c0.111-0.229,0.208-0.465,0.278-0.708
	c0.083-0.278-0.007-0.576-0.236-0.756c-0.125-0.097-0.271-0.146-0.423-0.146c-0.125,0-0.25,0.035-0.361,0.111
	c-0.576,0.361-1.194,0.625-1.846,0.798C15.769,1.755,14.693,1.325,13.583,1.325z M13.583,2.019c1.097,0,2.089,0.493,2.79,1.27
	c0.868-0.18,1.686-0.514,2.422-0.979c-0.285,0.944-0.888,1.735-1.679,2.235c0.777-0.097,1.513-0.319,2.193-0.638
	c-0.507,0.812-1.159,1.52-1.902,2.089c0.007,0.174,0.007,0.347,0.007,0.521c0,5.323-3.838,11.465-10.868,11.465
	c-2.158,0-4.164-0.666-5.857-1.811c0.298,0.035,0.604,0.056,0.916,0.056c1.784,0,3.435-0.645,4.74-1.721
	c-1.673-0.035-3.081-1.201-3.567-2.804c0.236,0.049,0.472,0.076,0.722,0.076c0.347,0,0.68-0.049,1.006-0.146
	c-1.749-0.368-3.067-1.999-3.067-3.949V7.633c0.514,0.298,1.103,0.479,1.728,0.5c-1.02-0.722-1.7-1.95-1.7-3.352
	c0-0.736,0.194-1.43,0.521-2.026c1.888,2.443,4.698,4.046,7.877,4.213C9.794,6.669,9.759,6.363,9.759,6.051
	C9.759,3.823,11.473,2.019,13.583,2.019z"/>
</svg>
