<?xml version="1.0" encoding="utf-8"?>
<!-- Generator: Adobe Illustrator 17.0.2, SVG Export Plug-In . SVG Version: 6.00 Build 0)  -->
<!DOCTYPE svg PUBLIC "-//W3C//DTD SVG 1.1//EN" "http://www.w3.org/Graphics/SVG/1.1/DTD/svg11.dtd">
<svg version="1.1" id="Layer_1" xmlns="http://www.w3.org/2000/svg" xmlns:xlink="http://www.w3.org/1999/xlink" x="0px" y="0px"
	 width="16px" height="16px" viewBox="0 0 16 16" enable-background="new 0 0 16 16" xml:space="preserve">
<path fill="#FFFFFF" d="M10.866,1.06c-1.988,0-3.609,1.693-3.609,3.781v0.117C5.22,4.669,3.338,3.564,2.022,1.865
	c-0.1-0.139-0.261-0.217-0.433-0.217L1.544,1.654c-0.183,0.011-0.35,0.117-0.439,0.283C0.789,2.509,0.623,3.164,0.623,3.825
	c0,0.616,0.144,1.21,0.405,1.738c-0.05,0.011-0.1,0.033-0.15,0.061C0.712,5.718,0.601,5.896,0.601,6.096v0.05
	c0,1.11,0.466,2.132,1.221,2.837L1.811,8.988c-0.128,0.144-0.172,0.35-0.117,0.539c0.322,1.06,1.066,1.899,2.004,2.321
	c-0.744,0.383-1.566,0.577-2.415,0.577c-0.222,0-0.444-0.011-0.666-0.039l-0.067-0.006c-0.228,0-0.433,0.144-0.516,0.361
	c-0.089,0.244,0,0.511,0.211,0.655c1.493,1.01,3.22,1.543,4.991,1.543c3.487,0,5.663-1.732,6.879-3.187
	c1.505-1.799,2.371-4.186,2.371-6.54V5.057c0.555-0.461,1.033-1.01,1.427-1.632c0.133-0.205,0.111-0.477-0.05-0.666
	c-0.105-0.122-0.261-0.189-0.416-0.189c-0.033,0-0.067,0.006-0.105,0.011c0.089-0.183,0.167-0.372,0.222-0.566
	c0.067-0.222-0.006-0.461-0.189-0.605c-0.1-0.078-0.217-0.117-0.339-0.117c-0.1,0-0.2,0.028-0.289,0.089
	c-0.461,0.289-0.955,0.5-1.477,0.638C12.615,1.404,11.755,1.06,10.866,1.06z M10.866,1.615c0.877,0,1.671,0.394,2.232,1.016
	c0.694-0.144,1.349-0.411,1.938-0.783c-0.228,0.755-0.711,1.388-1.344,1.788c0.622-0.078,1.21-0.255,1.754-0.511
	c-0.405,0.65-0.927,1.216-1.521,1.671c0.006,0.139,0.006,0.278,0.006,0.416c0,4.258-3.07,9.172-8.694,9.172
	c-1.727,0-3.331-0.533-4.686-1.449c0.239,0.028,0.483,0.044,0.733,0.044c1.427,0,2.748-0.516,3.792-1.377
	c-1.338-0.028-2.465-0.96-2.854-2.243C2.41,9.399,2.599,9.421,2.799,9.421c0.278,0,0.544-0.039,0.805-0.117
	C2.205,9.01,1.15,7.706,1.15,6.146V6.107c0.411,0.239,0.883,0.383,1.382,0.4c-0.816-0.577-1.36-1.56-1.36-2.682
	c0-0.589,0.155-1.144,0.416-1.621c1.51,1.954,3.759,3.237,6.302,3.37C7.835,5.335,7.807,5.091,7.807,4.841
	C7.807,3.059,9.178,1.615,10.866,1.615z"/>
</svg>
