<?xml version="1.0" encoding="utf-8"?>
<!-- Generator: Adobe Illustrator 17.0.2, SVG Export Plug-In . SVG Version: 6.00 Build 0)  -->
<!DOCTYPE svg PUBLIC "-//W3C//DTD SVG 1.1//EN" "http://www.w3.org/Graphics/SVG/1.1/DTD/svg11.dtd">
<svg version="1.1" id="Layer_1" xmlns="http://www.w3.org/2000/svg" xmlns:xlink="http://www.w3.org/1999/xlink" x="0px" y="0px"
	 width="24px" height="24px" viewBox="0 0 24 24" enable-background="new 0 0 24 24" xml:space="preserve">
<path fill-rule="evenodd" clip-rule="evenodd" fill="#FFFFFF" d="M20.193,4.308l-0.15,0.188c-1.56,1.912-3.487,3.345-5.895,4.372
	l-0.645,0.27L13.81,9.79c0.285,0.608,0.562,1.238,0.84,1.89l0.203,0.48l0.495-0.082c0.945-0.158,1.95-0.24,2.985-0.24
	c1.387,0,2.872,0.142,4.417,0.427l0.495,0.09c0-0.12,0.015-0.233,0.015-0.345C23.26,9.025,22.09,6.318,20.193,4.308z M8.83,1.225
	L8.905,1.33c1.44,2.055,2.76,4.23,3.93,6.48l0.27,0.525l0.54-0.217c2.408-1.005,4.395-2.475,5.895-4.373L19.578,3.7
	c-2.002-1.822-4.65-2.94-7.567-2.94C10.908,0.76,9.843,0.925,8.83,1.225z M0.955,9.948L1.42,9.993
	c4.208-0.007,7.41-0.368,10.095-1.14l0.795-0.225l-0.398-0.75C10.473,5.148,9.01,2.943,7.99,1.51C4.39,2.898,1.675,6.07,0.955,9.948
	z M4.143,20.043l0.21-0.315c2.452-3.743,5.377-6.09,8.948-7.178l0.712-0.217l-0.3-0.713c-0.255-0.577-0.51-1.155-0.765-1.702
	L12.7,9.393L12.175,9.52c-2.918,0.892-6.308,1.237-10.98,1.237h-0.36C0.79,11.17,0.76,11.583,0.76,12.01
	C0.76,15.16,2.058,18.003,4.143,20.043z M16.765,22.195c-0.39-2.76-1.132-5.61-2.205-8.467l-0.217-0.562l-0.562,0.158
	c-4.755,1.365-7.372,4.755-8.925,7.192L4.78,20.628c1.957,1.642,4.477,2.632,7.23,2.632C13.713,23.26,15.325,22.87,16.765,22.195z
	 M23.193,13.233l-0.367-0.068c-1.568-0.3-3.068-0.45-4.463-0.45c-0.81,0-1.605,0.052-2.362,0.15l-0.818,0.113l0.292,0.802
	c0.938,2.55,1.613,5.1,2.018,7.568l0.075,0.435C20.628,20.043,22.795,16.908,23.193,13.233z M12.01,24.01c-6.63,0-12-5.37-12-12
	s5.37-12,12-12s12,5.37,12,12S18.64,24.01,12.01,24.01z"/>
</svg>
