<?xml version="1.0" encoding="utf-8"?>
<!-- Generator: Adobe Illustrator 17.0.2, SVG Export Plug-In . SVG Version: 6.00 Build 0)  -->
<!DOCTYPE svg PUBLIC "-//W3C//DTD SVG 1.1//EN" "http://www.w3.org/Graphics/SVG/1.1/DTD/svg11.dtd">
<svg version="1.1" id="Layer_1" xmlns="http://www.w3.org/2000/svg" xmlns:xlink="http://www.w3.org/1999/xlink" x="0px" y="0px"
	 width="20px" height="20px" viewBox="0 0 20 20" enable-background="new 0 0 20 20" xml:space="preserve">
<path fill-rule="evenodd" clip-rule="evenodd" fill="#FFFFFF" d="M16.819,3.581l-0.125,0.156c-1.3,1.594-2.906,2.788-4.913,3.644
	l-0.538,0.225L11.5,8.15c0.238,0.506,0.469,1.031,0.7,1.575l0.169,0.4l0.413-0.069c0.788-0.131,1.625-0.2,2.488-0.2
	c1.156,0,2.394,0.119,3.681,0.356l0.412,0.075c0-0.1,0.013-0.194,0.013-0.288C19.375,7.512,18.4,5.256,16.819,3.581z M7.35,1.013
	L7.412,1.1c1.2,1.712,2.3,3.525,3.275,5.4l0.225,0.438l0.45-0.181c2.006-0.838,3.662-2.062,4.912-3.644l0.031-0.037
	c-1.669-1.519-3.875-2.45-6.306-2.45C9.081,0.625,8.194,0.762,7.35,1.013z M0.788,8.281l0.387,0.038
	c3.506-0.006,6.175-0.306,8.412-0.95l0.663-0.188L9.919,6.556C8.719,4.281,7.5,2.444,6.65,1.25C3.65,2.406,1.388,5.05,0.788,8.281z
	 M3.444,16.694l0.175-0.263c2.044-3.119,4.481-5.075,7.456-5.981l0.594-0.181l-0.25-0.594c-0.212-0.481-0.425-0.963-0.637-1.419
	l-0.206-0.438l-0.438,0.106c-2.431,0.744-5.256,1.031-9.15,1.031h-0.3C0.65,9.3,0.625,9.644,0.625,10
	C0.625,12.625,1.706,14.994,3.444,16.694z M13.962,18.487c-0.325-2.3-0.944-4.675-1.837-7.056l-0.181-0.469l-0.469,0.131
	c-3.963,1.137-6.144,3.962-7.438,5.994l-0.062,0.094C5.606,18.55,7.706,19.375,10,19.375C11.419,19.375,12.762,19.05,13.962,18.487z
	 M19.319,11.019l-0.306-0.056c-1.306-0.25-2.556-0.375-3.719-0.375c-0.675,0-1.337,0.044-1.969,0.125l-0.681,0.094l0.244,0.669
	c0.781,2.125,1.344,4.25,1.681,6.306l0.062,0.362C17.181,16.694,18.987,14.081,19.319,11.019z M10,20C4.475,20,0,15.525,0,10
	S4.475,0,10,0s10,4.475,10,10S15.525,20,10,20z"/>
</svg>
