<?xml version="1.0" encoding="utf-8"?>
<!-- Generator: Adobe Illustrator 17.0.2, SVG Export Plug-In . SVG Version: 6.00 Build 0)  -->
<!DOCTYPE svg PUBLIC "-//W3C//DTD SVG 1.1//EN" "http://www.w3.org/Graphics/SVG/1.1/DTD/svg11.dtd">
<svg version="1.1" id="Layer_1" xmlns="http://www.w3.org/2000/svg" xmlns:xlink="http://www.w3.org/1999/xlink" x="0px" y="0px"
	 width="16px" height="16px" viewBox="0 0 16 16" enable-background="new 0 0 16 16" xml:space="preserve">
<path fill-rule="evenodd" clip-rule="evenodd" fill="#FFFFFF" d="M8,6C6.62,6,5.5,7.12,5.5,8.5S6.62,11,8,11s2.5-1.12,2.5-2.5
	S9.38,6,8,6z M8,11.5c-1.655,0-3-1.345-3-3s1.345-3,3-3s3,1.345,3,3S9.655,11.5,8,11.5z M8,4.5c-2.21,0-4,1.79-4,4s1.79,4,4,4
	s4-1.79,4-4S10.21,4.5,8,4.5z M8,13c-2.485,0-4.5-2.015-4.5-4.5S5.515,4,8,4s4.5,2.015,4.5,4.5S10.485,13,8,13z M14,2.5
	C14,2.225,13.775,2,13.5,2h-1C12.225,2,12,2.225,12,2.5v1C12,3.775,12.225,4,12.5,4h1C13.775,4,14,3.775,14,3.5V2.5z M13.75,4.5
	h-1.5c-0.415,0-0.75-0.335-0.75-0.75v-1.5c0-0.415,0.335-0.75,0.75-0.75h1.5c0.415,0,0.75,0.335,0.75,0.75v1.5
	C14.5,4.165,14.165,4.5,13.75,4.5z M13,14.5H3c-0.83,0-1.5-0.67-1.5-1.5V6h2.175C3.58,6.16,3.495,6.33,3.42,6.5H2V13
	c0,0.55,0.45,1,1,1h10c0.55,0,1-0.45,1-1V6.5h-1.42c-0.075-0.17-0.16-0.34-0.255-0.5H14.5v7C14.5,13.83,13.83,14.5,13,14.5z M15.5,3
	c0-1.38-1.12-2.5-2.5-2.5H3C1.62,0.5,0.5,1.62,0.5,3v10c0,1.38,1.12,2.5,2.5,2.5h10c1.38,0,2.5-1.12,2.5-2.5V3z M13,16H3
	c-1.655,0-3-1.345-3-3V3c0-1.655,1.345-3,3-3h10c1.655,0,3,1.345,3,3v10C16,14.655,14.655,16,13,16z"/>
</svg>
