<?xml version="1.0" encoding="utf-8"?>
<!-- Generator: Adobe Illustrator 17.0.2, SVG Export Plug-In . SVG Version: 6.00 Build 0)  -->
<!DOCTYPE svg PUBLIC "-//W3C//DTD SVG 1.1//EN" "http://www.w3.org/Graphics/SVG/1.1/DTD/svg11.dtd">
<svg version="1.1" id="Layer_1" xmlns="http://www.w3.org/2000/svg" xmlns:xlink="http://www.w3.org/1999/xlink" x="0px" y="0px"
	 width="24px" height="24px" viewBox="0 0 24 24" enable-background="new 0 0 24 24" xml:space="preserve">
<path fill-rule="evenodd" clip-rule="evenodd" fill="#FFFFFF" d="M12,9c-2.07,0-3.75,1.68-3.75,3.75S9.93,16.5,12,16.5
	s3.75-1.68,3.75-3.75S14.07,9,12,9z M12,17.25c-2.483,0-4.5-2.017-4.5-4.5s2.017-4.5,4.5-4.5s4.5,2.017,4.5,4.5
	S14.483,17.25,12,17.25z M12,6.75c-3.315,0-6,2.685-6,6s2.685,6,6,6s6-2.685,6-6S15.315,6.75,12,6.75z M12,19.5
	c-3.727,0-6.75-3.022-6.75-6.75S8.273,6,12,6s6.75,3.023,6.75,6.75S15.727,19.5,12,19.5z M21,3.75C21,3.338,20.663,3,20.25,3h-1.5
	C18.337,3,18,3.338,18,3.75v1.5C18,5.662,18.337,6,18.75,6h1.5C20.663,6,21,5.662,21,5.25V3.75z M20.625,6.75h-2.25
	c-0.622,0-1.125-0.503-1.125-1.125v-2.25c0-0.622,0.503-1.125,1.125-1.125h2.25c0.622,0,1.125,0.503,1.125,1.125v2.25
	C21.75,6.247,21.247,6.75,20.625,6.75z M19.5,21.75h-15c-1.245,0-2.25-1.005-2.25-2.25V9h3.262C5.37,9.24,5.242,9.495,5.13,9.75H3
	v9.75C3,20.325,3.675,21,4.5,21h15c0.825,0,1.5-0.675,1.5-1.5V9.75h-2.13C18.757,9.495,18.63,9.24,18.487,9h3.263v10.5
	C21.75,20.745,20.745,21.75,19.5,21.75z M23.25,4.5c0-2.07-1.68-3.75-3.75-3.75h-15c-2.07,0-3.75,1.68-3.75,3.75v15
	c0,2.07,1.68,3.75,3.75,3.75h15c2.07,0,3.75-1.68,3.75-3.75V4.5z M19.5,24h-15C2.017,24,0,21.983,0,19.5v-15C0,2.017,2.017,0,4.5,0
	h15C21.983,0,24,2.017,24,4.5v15C24,21.983,21.983,24,19.5,24z"/>
</svg>
