<?xml version="1.0" encoding="UTF-8"?>
<svg width="24px" height="24px" viewBox="0 0 24 24" version="1.1" xmlns="http://www.w3.org/2000/svg" xmlns:xlink="http://www.w3.org/1999/xlink">
    <!-- Generator: Sketch 3.8.1 (29687) - http://www.bohemiancoding.com/sketch -->
    <title>Codepen-color</title>
    <desc>Created with Sketch.</desc>
    <defs></defs>
    <g id="Page-1" stroke="none" stroke-width="1" fill="none" fill-rule="evenodd">
        <g id="Artboard-6" fill="#3E5174">
            <path d="M23.991,8.2095 C23.98875,8.19375 23.985,8.1795 23.98275,8.1645 C23.9775,8.13525 23.97225,8.106 23.96475,8.07825 C23.96025,8.061 23.9535,8.0445 23.94825,8.028 C23.94,8.0025 23.93175,7.97775 23.922,7.953 C23.91525,7.93575 23.907,7.9185 23.89875,7.90275 C23.88825,7.87875 23.877,7.85625 23.8635,7.8345 C23.8545,7.818 23.844,7.80225 23.83425,7.7865 C23.82075,7.76475 23.8065,7.74375 23.79075,7.7235 C23.7795,7.7085 23.7675,7.6935 23.7555,7.67925 C23.739,7.65975 23.72175,7.641 23.70375,7.623 C23.69025,7.6095 23.6775,7.59525 23.66325,7.58325 C23.64375,7.566 23.62425,7.5495 23.60475,7.53375 C23.589,7.52175 23.574,7.50975 23.55825,7.4985 C23.55225,7.49475 23.547,7.4895 23.541,7.48575 L12.57225,0.17325 C12.22575,-0.05775 11.775,-0.05775 11.42775,0.17325 L0.45975,7.48575 C0.45375,7.4895 0.4485,7.49475 0.4425,7.4985 C0.426,7.50975 0.411,7.52175 0.396,7.53375 C0.37575,7.5495 0.35625,7.566 0.3375,7.58325 C0.32325,7.59525 0.30975,7.6095 0.29625,7.623 C0.27825,7.641 0.261,7.65975 0.24525,7.67925 C0.2325,7.6935 0.2205,7.7085 0.20925,7.7235 C0.19425,7.74375 0.18,7.76475 0.1665,7.7865 C0.156,7.80225 0.14625,7.818 0.1365,7.8345 C0.12375,7.85625 0.1125,7.87875 0.10125,7.90275 C0.09375,7.9185 0.0855,7.93575 0.07875,7.953 C0.06825,7.97775 0.06,8.0025 0.05175,8.028 C0.0465,8.0445 0.0405,8.061 0.036,8.07825 C0.0285,8.106 0.02325,8.13525 0.018,8.1645 C0.015,8.1795 0.01125,8.19375 0.00975,8.2095 C0.00375,8.253 0,8.298 0,8.34375 L0,15.65625 C0,15.70125 0.00375,15.74625 0.00975,15.79125 C0.01125,15.8055 0.015,15.8205 0.018,15.8355 C0.02325,15.86475 0.0285,15.89325 0.036,15.92175 C0.0405,15.939 0.0465,15.9555 0.05175,15.972 C0.06,15.99675 0.06825,16.02225 0.07875,16.04775 C0.0855,16.06425 0.09375,16.08075 0.10125,16.09725 C0.1125,16.1205 0.12375,16.143 0.1365,16.16625 C0.14625,16.182 0.156,16.19775 0.1665,16.2135 C0.18,16.23525 0.19425,16.2555 0.20925,16.27575 C0.2205,16.2915 0.2325,16.3065 0.24525,16.32075 C0.261,16.3395 0.27825,16.359 0.29625,16.37625 C0.30975,16.3905 0.32325,16.404 0.3375,16.41675 C0.35625,16.434 0.37575,16.4505 0.396,16.46625 C0.411,16.47825 0.426,16.49025 0.4425,16.5015 C0.4485,16.50525 0.45375,16.5105 0.45975,16.51425 L11.42775,23.82675 C11.601,23.94225 11.8005,24 12,24 C12.1995,24 12.399,23.94225 12.57225,23.82675 L23.541,16.51425 C23.547,16.5105 23.55225,16.50525 23.55825,16.5015 C23.574,16.49025 23.589,16.47825 23.60475,16.46625 C23.62425,16.4505 23.64375,16.434 23.66325,16.41675 C23.6775,16.404 23.69025,16.3905 23.70375,16.37625 C23.72175,16.359 23.739,16.3395 23.7555,16.32075 C23.7675,16.3065 23.7795,16.2915 23.79075,16.27575 C23.8065,16.2555 23.82075,16.23525 23.83425,16.2135 C23.844,16.19775 23.8545,16.182 23.8635,16.16625 C23.877,16.143 23.88825,16.1205 23.89875,16.09725 C23.907,16.08075 23.91525,16.06425 23.922,16.04775 C23.93175,16.02225 23.94,15.99675 23.94825,15.972 C23.9535,15.9555 23.96025,15.939 23.96475,15.92175 C23.97225,15.89325 23.9775,15.86475 23.98275,15.8355 C23.985,15.8205 23.98875,15.8055 23.991,15.79125 C23.997,15.74625 24,15.70125 24,15.65625 L24,8.34375 C24,8.298 23.997,8.253 23.991,8.2095 L23.991,8.2095 L23.991,8.2095 Z M13.03125,2.95875 L21.11175,8.34525 L17.50275,10.7595 L13.03125,7.7685 L13.03125,2.95875 L13.03125,2.95875 Z M10.96875,2.95875 L10.96875,7.7685 L6.498,10.7595 L2.88825,8.34525 L10.96875,2.95875 L10.96875,2.95875 Z M2.0625,10.27425 L4.64325,12 L2.0625,13.72575 L2.0625,10.27425 L2.0625,10.27425 Z M10.96875,21.04125 L2.88825,15.65475 L6.498,13.24125 L10.96875,16.2315 L10.96875,21.04125 L10.96875,21.04125 Z M12,14.43975 L8.35275,12 L12,9.56025 L15.648,12 L12,14.43975 L12,14.43975 Z M13.03125,21.04125 L13.03125,16.2315 L17.50275,13.24125 L21.11175,15.65475 L13.03125,21.04125 L13.03125,21.04125 Z M21.9375,13.72575 L19.3575,12 L21.9375,10.27425 L21.9375,13.72575 L21.9375,13.72575 Z" id="Codepen"></path>
        </g>
    </g>
</svg>