<?xml version="1.0" encoding="UTF-8"?>
<svg width="24px" height="24px" viewBox="0 0 24 24" version="1.1" xmlns="http://www.w3.org/2000/svg" xmlns:xlink="http://www.w3.org/1999/xlink">
    <!-- Generator: Sketch 3.8.1 (29687) - http://www.bohemiancoding.com/sketch -->
    <title>Skype-black</title>
    <desc>Created with Sketch.</desc>
    <defs></defs>
    <g id="Page-1" stroke="none" stroke-width="1" fill="none" fill-rule="evenodd">
        <g id="Artboard-1" fill="#3E5174">
            <path d="M23.3099718,14.5477308 C23.4835372,13.7659537 23.5738476,12.9563554 23.5738476,12.1245001 C23.5738476,5.89254043 18.4501411,0.838810642 12.1269991,0.838810642 C11.4609595,0.838810642 10.8076199,0.895844201 10.1698024,1.00434707 C9.14675447,0.368631542 7.9360301,0 6.6392286,0 C2.97177799,0 0,2.92957746 0,6.54633977 C0,7.75378195 0.333019755,8.88332464 0.911571025,9.85706834 C0.760583255,10.5887672 0.680150517,11.3482873 0.680150517,12.1245001 C0.680150517,18.3592419 5.80526811,23.4115806 12.1269991,23.4115806 C12.8438382,23.4115806 13.5437441,23.3462007 14.2238946,23.2223961 C15.1594544,23.7176143 16.2262465,24 17.3621825,24 C21.028222,24 24,21.0690315 24,17.4550513 C24,16.4103634 23.7516463,15.4241002 23.3099718,14.5477308 Z M17.9985889,17.5190402 C17.4694262,18.2590854 16.6876764,18.8433316 15.6716839,19.2578682 C14.6683913,19.6696227 13.4661336,19.8796731 12.0959548,19.8796731 C10.4520226,19.8796731 9.07337723,19.5945053 7.99670743,19.031125 C7.22765757,18.6221527 6.59407338,18.0685098 6.11288805,17.381325 C5.62605833,16.691358 5.38052681,16.0055642 5.38052681,15.3420275 C5.38052681,14.930273 5.54139229,14.5713789 5.85747883,14.2778647 C6.17074318,13.9857416 6.57290687,13.8396801 7.05268109,13.8396801 C7.44496707,13.8396801 7.78504233,13.9551382 8.06020696,14.1846635 C8.32408278,14.4058425 8.54985889,14.7327421 8.73189087,15.1514519 C8.93508937,15.6105025 9.15522107,15.9972179 9.38805268,16.2990784 C9.61382879,16.5939837 9.93697084,16.8402017 10.3490122,17.0335594 C10.7638758,17.225526 11.3240828,17.3256825 12.0112888,17.3256825 C12.9581373,17.3256825 13.7342427,17.1253695 14.3170273,16.7330899 C14.888523,16.3505477 15.1650988,15.888715 15.1650988,15.3239437 C15.1650988,14.8801947 15.0197554,14.529647 14.7234243,14.2542167 C14.4101599,13.9676578 13.9995296,13.7450878 13.5014111,13.5892888 C12.980715,13.4307077 12.2751646,13.2568249 11.4016933,13.0759868 C10.2121355,12.8255955 9.20319849,12.5292993 8.40169332,12.1912711 C7.58043274,11.8476787 6.91862653,11.3705443 6.434619,10.7737785 C5.94355597,10.1658842 5.69379116,9.40497305 5.69379116,8.51051991 C5.69379116,7.65918971 5.95484478,6.88993219 6.47130762,6.22778647 C6.98212606,5.56981395 7.73000941,5.05512085 8.69379116,4.70596418 C9.6434619,4.35958964 10.7723424,4.18431577 12.0522107,4.18431577 C13.0738476,4.18431577 13.9727187,4.30116501 14.7234243,4.53208138 C15.4783631,4.76299774 16.1133584,5.07459572 16.6128881,5.45992001 C17.116651,5.84941749 17.4920038,6.26256303 17.7262465,6.69379238 C17.9633114,7.12919492 18.084666,7.56181534 18.084666,7.98052513 C18.084666,8.38393323 17.9266228,8.75117371 17.6147695,9.069727 C17.3015052,9.39245349 16.9049859,9.55520779 16.4393227,9.55520779 C16.0159925,9.55520779 15.6829727,9.45226917 15.4543744,9.25195618 C15.2398871,9.06416275 15.0169332,8.77203965 14.7699906,8.35472092 C14.4849483,7.82055295 14.1392286,7.39906103 13.7427093,7.10137367 C13.3574788,6.81203269 12.715428,6.6673622 11.8306679,6.6673622 C11.0122295,6.6673622 10.3433678,6.82872544 9.8480715,7.15006086 C9.37111947,7.45748565 9.13828786,7.81220657 9.13828786,8.23230742 C9.13828786,8.48826291 9.2130762,8.70387759 9.36829727,8.88749783 C9.52916275,9.08502869 9.75917215,9.25473831 10.0498589,9.3994088 C10.3504233,9.54825248 10.6608655,9.66788385 10.9713076,9.75134759 C11.2888053,9.83898452 11.8222013,9.96835333 12.5545626,10.1352808 C13.4816557,10.3300296 14.3325494,10.5512085 15.084666,10.7890802 C15.8480715,11.0283429 16.5056444,11.3232481 17.0446849,11.6696227 C17.5921919,12.0215615 18.0253998,12.4722657 18.3344309,13.0119979 C18.6434619,13.5559033 18.8000941,14.2236133 18.8000941,15.0012172 C18.8000941,15.9304469 18.5291627,16.7776039 17.9985889,17.5190402 Z" id="Skype"></path>
        </g>
    </g>
</svg>