<?xml version="1.0" encoding="UTF-8"?>
<svg width="24px" height="24px" viewBox="0 0 24 24" version="1.1" xmlns="http://www.w3.org/2000/svg" xmlns:xlink="http://www.w3.org/1999/xlink">
    <!-- Generator: Sketch 3.8.1 (29687) - http://www.bohemiancoding.com/sketch -->
    <title>Snapchat-black</title>
    <desc>Created with Sketch.</desc>
    <defs></defs>
    <g id="Page-1" stroke="none" stroke-width="1" fill="none" fill-rule="evenodd">
        <g id="Artboard-1" fill="#3E5174">
            <path d="M12.23076,0 L12.2297026,0 C12.208991,0 12.1895232,0 12.1709885,0.000264603494 C12.023208,0.00185222446 11.7802657,0.00436595766 11.7584345,0.00463056115 C11.2256534,0.00463056115 10.1596558,0.0846731182 9.01460548,0.622215117 C8.35991785,0.929353623 7.77103486,1.34464881 7.26437655,1.85659042 C6.66031743,2.46656762 6.16821327,3.21863691 5.80199621,4.09222534 C5.26566984,5.37131863 5.39298749,7.52578644 5.49523967,9.25715325 L5.49561285,9.25986544 C5.50655956,9.44528634 5.51806604,9.63890994 5.52857736,9.82757224 C5.44989792,9.86600589 5.32233148,9.90655638 5.13430937,9.90655638 C4.83178224,9.90655638 4.47203369,9.80369177 4.06532627,9.60100549 C3.94565887,9.54173431 3.80907384,9.51176796 3.65837005,9.51176796 C3.41623639,9.51176796 3.16097912,9.58757687 2.93955712,9.72603064 C2.66097591,9.90000744 2.48097724,10.1458902 2.43209025,10.418498 C2.3998721,10.5988253 2.40142703,10.9552462 2.77367722,11.3166946 C2.97843037,11.5156764 3.27921598,11.6991789 3.66745084,11.8623731 C3.76932984,11.9050404 3.89024118,11.9457894 4.01830519,11.9889859 C4.46270411,12.1392145 5.13530453,12.3661782 5.3107006,12.8052215 C5.39958039,13.0278192 5.36132912,13.3207353 5.19731513,13.6747747 C5.19302352,13.6844328 5.18873191,13.6938923 5.18481349,13.703815 C5.14382554,13.8056212 4.76143722,14.7268382 3.97706845,15.6983961 C3.53136339,16.2508882 3.04044097,16.7126213 2.51873093,17.071159 C1.8819561,17.5088794 1.19293563,17.7950481 0.471012841,17.9215285 C0.187518048,17.9710094 -0.014933806,18.2396481 0.000864280303,18.5449344 C0.00571566114,18.632915 0.0251211845,18.7206311 0.0587698644,18.8055027 C0.0590186531,18.8060319 0.0593296391,18.8065611 0.0595784279,18.8070241 C0.174207849,19.0922005 0.439976443,19.334445 0.872060323,19.5481124 C1.40005227,19.8089453 2.1897078,20.0283677 3.2188847,20.2000292 C3.27088156,20.3052091 3.32486872,20.569548 3.36224923,20.7505368 C3.40137126,20.9429035 3.44217262,21.1406946 3.50032699,21.3507898 C3.56308395,21.578415 3.725854,21.8504274 4.14400571,21.8504274 C4.30248415,21.8504274 4.48472192,21.8124568 4.69575699,21.7689295 C5.00481482,21.7044324 5.42744473,21.6164517 5.9549391,21.6164517 C6.24739029,21.6164517 6.5504772,21.6438382 6.85555442,21.6977511 C7.44362885,21.8018726 7.95059815,22.1827694 8.53717985,22.6238634 C9.39574986,23.2693636 10.367581,24 11.8524145,24 C11.8929048,24 11.9335196,23.9986108 11.9736368,23.995634 C12.0227104,23.9980816 12.0835392,24 12.1477267,24 C13.6329956,24 14.6045779,23.269099 15.462215,22.624128 L15.4635833,22.622805 C16.0502894,22.1822401 16.556699,21.8018726 17.1445868,21.6977511 C17.4495396,21.6439043 17.7525643,21.6164517 18.0451399,21.6164517 C18.5490616,21.6164517 18.9480565,21.6847856 19.304322,21.7586761 C19.5368151,21.8073631 19.717498,21.8307806 19.8561355,21.8307806 L19.8696945,21.8310452 L19.8837511,21.8310452 C20.1895746,21.8310452 20.4142931,21.6525039 20.500063,21.3400734 C20.5570356,21.1344103 20.5977126,20.9412498 20.6378298,20.7456416 C20.6727846,20.5760308 20.7286377,20.3041507 20.7806345,20.1978462 C21.8104956,20.025854 22.5998402,19.8068946 23.1278943,19.5461278 C23.558983,19.3334528 23.8244406,19.0914729 23.9397542,18.8074872 C23.9743359,18.722351 23.9945499,18.6341057 23.9990903,18.5442729 C24.0153238,18.2395158 23.812561,17.9703479 23.5288796,17.920867 C20.3204375,17.3584523 18.875037,13.8521914 18.8152655,13.7032196 C18.8114093,13.6934293 18.8070555,13.6837051 18.8025151,13.6742455 C18.6385011,13.3200738 18.600623,13.0274884 18.689565,12.8044938 C18.8645879,12.3658474 19.5367529,12.1388838 19.9814628,11.9887213 C20.110211,11.9455909 20.2315577,11.9045774 20.3326282,11.8621085 C20.7704342,11.6782091 21.0833483,11.478698 21.2897807,11.2521313 C21.5363304,10.9820373 21.5843466,10.7232551 21.5813612,10.5539088 C21.5738353,10.1441703 21.2793316,9.78007591 20.8108624,9.6017993 C20.6526327,9.53220858 20.4721987,9.49549485 20.2884682,9.49549485 C20.1633896,9.49549485 19.9781664,9.51375249 19.8028325,9.60080704 C19.4274725,9.78761711 19.0912345,9.88975406 18.8025773,9.90430725 C18.6490746,9.89603839 18.5414113,9.86064767 18.4716882,9.82684458 C18.4804581,9.66702407 18.4901608,9.5028376 18.5001746,9.33163914 L18.5043418,9.25834397 C18.6071537,7.52585259 18.7349068,5.36973101 18.1983316,4.08971161 C17.8305596,3.21301408 17.3367139,2.45902642 16.7302291,1.8477262 C16.2215805,1.33545384 15.6307072,0.920224803 14.9736561,0.613284749 C13.8302229,0.0797118027 12.7642875,0 12.23076,0" id="Snapchat"></path>
        </g>
    </g>
</svg>